@startuml
hide class circle
class 注文{
    合計
}
class 注文詳細{
    数量
    小計
}
class 割引クーポン{
    値引額
    期限
}
class 商品{
    名称
    単価
}
class ドリンク{
    種別
}
class カップ{
    サイズ
}
class ハンバーガー{
    種別
}
class 材料{

}
class ポテト{
    サイズ
}


注文 "1." o-right- "*" 注文詳細
注文詳細"0..*" -right- "0..1"割引クーポン
注文詳細 "0..*"-- "1" 商品
ドリンク"0..*" -left- "1..3" カップ
商品 <|-left- ドリンク
商品 <|-- フード
フード "1"-right-"1"レシピ
フード <|-- ハンバーガー
ハンバーガー "1..*" o-left- "1..*"材料
フード <|-- ポテト
材料 <|-- パン
材料 <|-- 肉
材料 <|-- 野菜
材料 <|-- チーズ

@enduml